<mxfile host="app.diagrams.net" modified="2023-10-17T06:10:21.465Z" agent="Mozilla/5.0 (Windows NT 10.0; Win64; x64) AppleWebKit/537.36 (KHTML, like Gecko) Chrome/118.0.0.0 Safari/537.36 Edg/118.0.2088.46" etag="hcNWgHuiyeku-OjK-JlB" version="22.0.4" type="device">
  <diagram name="Page-1" id="tt0p2AYLQUR6rtq2RCFb">
    <mxGraphModel dx="1426" dy="785" grid="1" gridSize="10" guides="1" tooltips="1" connect="1" arrows="1" fold="1" page="1" pageScale="1" pageWidth="850" pageHeight="1100" math="0" shadow="0">
      <root>
        <mxCell id="0" />
        <mxCell id="1" parent="0" />
        <mxCell id="fBMuFBGO8dSWhLP7_DjK-5" style="edgeStyle=orthogonalEdgeStyle;rounded=0;orthogonalLoop=1;jettySize=auto;html=1;exitX=1;exitY=0.5;exitDx=0;exitDy=0;entryX=0;entryY=0.5;entryDx=0;entryDy=0;" edge="1" parent="1" source="fBMuFBGO8dSWhLP7_DjK-1" target="fBMuFBGO8dSWhLP7_DjK-2">
          <mxGeometry relative="1" as="geometry" />
        </mxCell>
        <mxCell id="fBMuFBGO8dSWhLP7_DjK-9" style="edgeStyle=orthogonalEdgeStyle;orthogonalLoop=1;jettySize=auto;html=1;exitX=0;exitY=0.5;exitDx=0;exitDy=0;curved=1;entryX=0.5;entryY=0;entryDx=0;entryDy=0;" edge="1" parent="1" source="fBMuFBGO8dSWhLP7_DjK-1" target="fBMuFBGO8dSWhLP7_DjK-1">
          <mxGeometry relative="1" as="geometry">
            <mxPoint x="120" y="180" as="targetPoint" />
            <Array as="points">
              <mxPoint x="120" y="230" />
              <mxPoint x="120" y="140" />
              <mxPoint x="220" y="140" />
            </Array>
          </mxGeometry>
        </mxCell>
        <mxCell id="fBMuFBGO8dSWhLP7_DjK-1" value="Normal mode" style="ellipse;whiteSpace=wrap;html=1;" vertex="1" parent="1">
          <mxGeometry x="160" y="190" width="120" height="80" as="geometry" />
        </mxCell>
        <mxCell id="fBMuFBGO8dSWhLP7_DjK-6" style="edgeStyle=orthogonalEdgeStyle;rounded=0;orthogonalLoop=1;jettySize=auto;html=1;exitX=0.5;exitY=1;exitDx=0;exitDy=0;entryX=0.5;entryY=0;entryDx=0;entryDy=0;" edge="1" parent="1" source="fBMuFBGO8dSWhLP7_DjK-2" target="fBMuFBGO8dSWhLP7_DjK-4">
          <mxGeometry relative="1" as="geometry" />
        </mxCell>
        <mxCell id="fBMuFBGO8dSWhLP7_DjK-2" value="Modify time duration for the red LEDS" style="ellipse;whiteSpace=wrap;html=1;" vertex="1" parent="1">
          <mxGeometry x="520" y="190" width="120" height="80" as="geometry" />
        </mxCell>
        <mxCell id="fBMuFBGO8dSWhLP7_DjK-8" style="edgeStyle=orthogonalEdgeStyle;rounded=0;orthogonalLoop=1;jettySize=auto;html=1;exitX=0.5;exitY=0;exitDx=0;exitDy=0;entryX=0.5;entryY=1;entryDx=0;entryDy=0;" edge="1" parent="1" source="fBMuFBGO8dSWhLP7_DjK-3" target="fBMuFBGO8dSWhLP7_DjK-1">
          <mxGeometry relative="1" as="geometry" />
        </mxCell>
        <mxCell id="fBMuFBGO8dSWhLP7_DjK-3" value="Modify time duration for the green LEDS" style="ellipse;whiteSpace=wrap;html=1;" vertex="1" parent="1">
          <mxGeometry x="160" y="430" width="120" height="80" as="geometry" />
        </mxCell>
        <mxCell id="fBMuFBGO8dSWhLP7_DjK-7" style="edgeStyle=orthogonalEdgeStyle;rounded=0;orthogonalLoop=1;jettySize=auto;html=1;exitX=0;exitY=0.5;exitDx=0;exitDy=0;entryX=1;entryY=0.5;entryDx=0;entryDy=0;" edge="1" parent="1" source="fBMuFBGO8dSWhLP7_DjK-4" target="fBMuFBGO8dSWhLP7_DjK-3">
          <mxGeometry relative="1" as="geometry" />
        </mxCell>
        <mxCell id="fBMuFBGO8dSWhLP7_DjK-4" value="Modify time duration for the amber LEDS" style="ellipse;whiteSpace=wrap;html=1;" vertex="1" parent="1">
          <mxGeometry x="520" y="430" width="120" height="80" as="geometry" />
        </mxCell>
        <mxCell id="fBMuFBGO8dSWhLP7_DjK-10" style="edgeStyle=orthogonalEdgeStyle;orthogonalLoop=1;jettySize=auto;html=1;exitX=0.5;exitY=0;exitDx=0;exitDy=0;curved=1;entryX=1;entryY=0.5;entryDx=0;entryDy=0;" edge="1" parent="1" source="fBMuFBGO8dSWhLP7_DjK-2" target="fBMuFBGO8dSWhLP7_DjK-2">
          <mxGeometry relative="1" as="geometry">
            <mxPoint x="700" y="210" as="targetPoint" />
            <mxPoint x="560" y="190" as="sourcePoint" />
            <Array as="points">
              <mxPoint x="580" y="140" />
              <mxPoint x="680" y="140" />
              <mxPoint x="680" y="230" />
            </Array>
          </mxGeometry>
        </mxCell>
        <mxCell id="fBMuFBGO8dSWhLP7_DjK-11" style="edgeStyle=orthogonalEdgeStyle;orthogonalLoop=1;jettySize=auto;html=1;exitX=1;exitY=0.5;exitDx=0;exitDy=0;curved=1;entryX=0.5;entryY=1;entryDx=0;entryDy=0;" edge="1" parent="1" source="fBMuFBGO8dSWhLP7_DjK-4" target="fBMuFBGO8dSWhLP7_DjK-4">
          <mxGeometry relative="1" as="geometry">
            <mxPoint x="750" y="570" as="targetPoint" />
            <mxPoint x="690" y="610" as="sourcePoint" />
            <Array as="points">
              <mxPoint x="680" y="470" />
              <mxPoint x="680" y="540" />
              <mxPoint x="580" y="540" />
            </Array>
          </mxGeometry>
        </mxCell>
        <mxCell id="fBMuFBGO8dSWhLP7_DjK-12" style="edgeStyle=orthogonalEdgeStyle;orthogonalLoop=1;jettySize=auto;html=1;exitX=0.5;exitY=1;exitDx=0;exitDy=0;curved=1;entryX=0;entryY=0.5;entryDx=0;entryDy=0;" edge="1" parent="1" source="fBMuFBGO8dSWhLP7_DjK-3" target="fBMuFBGO8dSWhLP7_DjK-3">
          <mxGeometry relative="1" as="geometry">
            <mxPoint x="250" y="290" as="targetPoint" />
            <mxPoint x="190" y="330" as="sourcePoint" />
            <Array as="points">
              <mxPoint x="220" y="540" />
              <mxPoint x="140" y="540" />
              <mxPoint x="140" y="470" />
            </Array>
          </mxGeometry>
        </mxCell>
        <mxCell id="fBMuFBGO8dSWhLP7_DjK-14" value="is_button_pressed(0)" style="text;html=1;align=center;verticalAlign=middle;resizable=0;points=[];autosize=1;strokeColor=none;fillColor=none;" vertex="1" parent="1">
          <mxGeometry x="315" y="198" width="140" height="30" as="geometry" />
        </mxCell>
        <mxCell id="fBMuFBGO8dSWhLP7_DjK-15" value="is_button_pressed(0)" style="text;html=1;align=center;verticalAlign=middle;resizable=0;points=[];autosize=1;strokeColor=none;fillColor=none;rotation=90;" vertex="1" parent="1">
          <mxGeometry x="535" y="330" width="140" height="30" as="geometry" />
        </mxCell>
        <mxCell id="fBMuFBGO8dSWhLP7_DjK-16" value="is_button_pressed(0)" style="text;html=1;align=center;verticalAlign=middle;resizable=0;points=[];autosize=1;strokeColor=none;fillColor=none;" vertex="1" parent="1">
          <mxGeometry x="325" y="430" width="140" height="30" as="geometry" />
        </mxCell>
        <mxCell id="fBMuFBGO8dSWhLP7_DjK-17" value="is_button_pressed(0)" style="text;html=1;align=center;verticalAlign=middle;resizable=0;points=[];autosize=1;strokeColor=none;fillColor=none;rotation=90;" vertex="1" parent="1">
          <mxGeometry x="175" y="340" width="140" height="30" as="geometry" />
        </mxCell>
        <mxCell id="fBMuFBGO8dSWhLP7_DjK-18" value="is_button_pressed_1s(0)" style="text;html=1;align=center;verticalAlign=middle;resizable=0;points=[];autosize=1;strokeColor=none;fillColor=none;" vertex="1" parent="1">
          <mxGeometry x="310" y="238" width="160" height="30" as="geometry" />
        </mxCell>
        <mxCell id="fBMuFBGO8dSWhLP7_DjK-19" value="is_button_pressed_1s(0)" style="text;html=1;align=center;verticalAlign=middle;resizable=0;points=[];autosize=1;strokeColor=none;fillColor=none;rotation=90;" vertex="1" parent="1">
          <mxGeometry x="480" y="338" width="160" height="30" as="geometry" />
        </mxCell>
        <mxCell id="fBMuFBGO8dSWhLP7_DjK-20" value="is_button_pressed_1s(0)" style="text;html=1;align=center;verticalAlign=middle;resizable=0;points=[];autosize=1;strokeColor=none;fillColor=none;" vertex="1" parent="1">
          <mxGeometry x="315" y="480" width="160" height="30" as="geometry" />
        </mxCell>
        <mxCell id="fBMuFBGO8dSWhLP7_DjK-21" value="is_button_pressed_1s(0)" style="text;html=1;align=center;verticalAlign=middle;resizable=0;points=[];autosize=1;strokeColor=none;fillColor=none;rotation=90;" vertex="1" parent="1">
          <mxGeometry x="120" y="328" width="160" height="30" as="geometry" />
        </mxCell>
        <mxCell id="fBMuFBGO8dSWhLP7_DjK-25" value="!is_button_pressed(0)" style="text;html=1;align=center;verticalAlign=middle;resizable=0;points=[];autosize=1;strokeColor=none;fillColor=none;" vertex="1" parent="1">
          <mxGeometry x="565" y="540" width="140" height="30" as="geometry" />
        </mxCell>
        <mxCell id="fBMuFBGO8dSWhLP7_DjK-27" value="!is_button_pressed(0)" style="text;html=1;align=center;verticalAlign=middle;resizable=0;points=[];autosize=1;strokeColor=none;fillColor=none;" vertex="1" parent="1">
          <mxGeometry x="570" y="110" width="140" height="30" as="geometry" />
        </mxCell>
        <mxCell id="fBMuFBGO8dSWhLP7_DjK-28" value="!is_button_pressed(0)" style="text;html=1;align=center;verticalAlign=middle;resizable=0;points=[];autosize=1;strokeColor=none;fillColor=none;" vertex="1" parent="1">
          <mxGeometry x="120" y="550" width="140" height="30" as="geometry" />
        </mxCell>
        <mxCell id="fBMuFBGO8dSWhLP7_DjK-29" value="!is_button_pressed(0)" style="text;html=1;align=center;verticalAlign=middle;resizable=0;points=[];autosize=1;strokeColor=none;fillColor=none;" vertex="1" parent="1">
          <mxGeometry x="100" y="110" width="140" height="30" as="geometry" />
        </mxCell>
      </root>
    </mxGraphModel>
  </diagram>
</mxfile>
